<svg width="74" height="74" viewBox="0 0 74 74" fill="none" xmlns="http://www.w3.org/2000/svg">
<rect x="1" y="1" width="72" height="72" rx="36" stroke="#38A376" stroke-width="2" stroke-linecap="round" stroke-dasharray="10 10"/>
<path d="M37.5 34C35.874 34 34.5 35.374 34.5 37C34.5 38.626 35.874 40 37.5 40C39.126 40 40.5 38.626 40.5 37C40.5 35.374 39.126 34 37.5 34Z" fill="#C5C9D5"/>
<path d="M45.5 30H42.914L40.207 27.293C40.1143 27.2 40.0041 27.1262 39.8828 27.0759C39.7614 27.0256 39.6313 26.9998 39.5 27H35.5C35.3687 26.9998 35.2386 27.0256 35.1172 27.0759C34.9959 27.1262 34.8857 27.2 34.793 27.293L32.086 30H29.5C28.397 30 27.5 30.897 27.5 32V43C27.5 44.103 28.397 45 29.5 45H45.5C46.603 45 47.5 44.103 47.5 43V32C47.5 30.897 46.603 30 45.5 30ZM37.5 42C34.79 42 32.5 39.71 32.5 37C32.5 34.29 34.79 32 37.5 32C40.21 32 42.5 34.29 42.5 37C42.5 39.71 40.21 42 37.5 42Z" fill="#C5C9D5"/>
</svg>
